<svg width="1024" height="1024" xmlns="http://www.w3.org/2000/svg" p-id="4620" version="1.1" class="icon" t="1760892182090">

 <g>
  <title>Layer 1</title>
  <path stroke="null" id="svg_1" p-id="4621" fill="#4DA1FF" d="m846.4495,55.12976l-560.02177,0a127.97485,127.97485 0 0 0 -126.9207,112.90039a127.97485,127.97485 0 0 0 -112.90039,126.9207l0,560.07448a127.92215,127.92215 0 0 0 127.81674,127.76403l560.02177,0a127.97485,127.97485 0 0 0 126.9207,-112.90039a128.02757,128.02757 0 0 0 112.90039,-126.9207l0,-560.02177a127.97485,127.97485 0 0 0 -127.81674,-127.81673l0,-0.00001zm-71.84091,423.56094l0,376.28193c0,22.13733 -18.02611,40.16344 -40.16344,40.16344l-560.02177,0a40.21615,40.21615 0 0 1 -40.21615,-40.16344l0,-376.28193l640.40136,0zm0,-183.73985l0,96.19197l-640.34865,0l0,-96.19197c0,-22.19004 18.02611,-40.21615 40.21615,-40.21615l560.02177,0c22.08462,0 40.11074,18.02611 40.11073,40.21615zm-40.16344,-127.81673l-484.96567,0a40.37428,40.37428 0 0 1 36.94825,-24.40377l560.02178,0c22.13733,0 40.16344,18.02611 40.16344,40.21615l0,560.07448c0,16.49758 -10.01451,30.72873 -24.35106,36.89555l0,-484.96568a127.97485,127.97485 0 0 0 -127.81674,-127.81673z"/>
  <path stroke="null" id="svg_2" p-id="4622" fill="#4DA1FF" d="m675.64221,288.4721c-21.87394,1.71935 -39.73605,17.67107 -39.78381,39.54501l0,0.09552a39.73605,39.73605 0 0 0 79.37658,0.04776a39.68829,39.68829 0 0 0 -39.59277,-39.68829zm-152.3056,-0.04776l-304.51569,0a39.73605,39.73605 0 0 0 0,79.37657l304.51569,0c21.92169,0 39.73605,-17.81435 39.73605,-39.68829s-17.81436,-39.68829 -39.73605,-39.68829z"/>
 </g>
</svg>