<svg version="1.1" xmlns="http://www.w3.org/2000/svg"  viewBox="0 0 200 200" width="200" height="200"><path d="M0 0 C66 0 132 0 200 0 C200 66 200 132 200 200 C134 200 68 200 0 200 C0 134 0 68 0 0 Z " transform="translate(0,0)" style="fill: #F8F8F8;"></path><path d="M0 0 C66 0 132 0 200 0 C200 66 200 132 200 200 C134 200 68 200 0 200 C0 134 0 68 0 0 Z M24 7 C24 68.38 24 129.76 24 193 C37.365 191.02 37.365 191.02 51 189 C60.31821241 187.6608557 69.63679772 186.3281692 78.9609375 185.03125 C80.1785376 184.86044922 81.3961377 184.68964844 82.65063477 184.51367188 C85.00225922 184.18379536 87.35428067 183.85672987 89.70678711 183.53320312 C95.62922609 182.69955617 101.49922234 181.73564808 107.37109375 180.59765625 C118.10736912 178.52283758 128.931897 177.0154573 139.75 175.4375 C142.87167148 174.97994259 145.99320228 174.52145551 149.11456299 174.06178284 C151.03782193 173.77877368 152.96126888 173.49703758 154.88494873 173.21690369 C161.60862816 172.23069849 168.29317939 171.11780344 175 170 C175 150.53 175 131.06 175 111 C168.99244012 108.84569554 168.99244012 108.84569554 163 109 C160.37505218 111.29151077 160.37505218 111.29151077 158 114 C152.37570484 118.10104855 146.71200631 117.76080676 140 117 C135.49334232 114.86526742 132.8258468 112.08177871 130 108 C128.1485907 102.44577211 127.64613874 95.95132386 130.12890625 90.5390625 C133.07940249 86.3945012 136.0470313 83.49523583 141 82 C147.23438936 81.34767226 152.73256527 81.23754662 158 85 C159.83557571 86.91856716 161.39339347 88.873609 163 91 C164.6256807 90.69106068 166.25052748 90.3777305 167.875 90.0625 C168.77992188 89.88847656 169.68484375 89.71445313 170.6171875 89.53515625 C172.99956317 89.10036299 172.99956317 89.10036299 175 88 C175 68.86 175 49.72 175 30 C165.68684058 28.25378261 156.44733707 26.53007567 147.08251953 25.16210938 C142.8012751 24.53353195 138.52137534 23.89633614 134.2421875 23.25390625 C133.52747284 23.14664215 132.81275818 23.03937805 132.0763855 22.92886353 C126.08015714 22.02340472 120.10163443 21.02664507 114.125 20 C103.14742046 18.12796431 92.13235015 16.55735658 81.10595703 15.00708008 C72.72077634 13.82629807 64.34180123 12.61185993 55.96875 11.34765625 C55.05162231 11.20922302 54.13449463 11.07078979 53.1895752 10.92816162 C48.69550109 10.24876933 44.20200839 9.56569461 39.70898438 8.87939453 C38.07682849 8.63179922 36.4446673 8.38423883 34.8125 8.13671875 C34.06415894 8.02135269 33.31581787 7.90598663 32.5447998 7.78712463 C29.6618956 7.351204 26.92079873 7 24 7 Z " transform="translate(0,0)" style="fill: #020202;"></path><path d="M0 0 C0.83402344 0.2784375 1.66804688 0.556875 2.52734375 0.84375 C9.87334565 3.4697476 17.59448443 7.39172664 22 14 C20.7315625 13.67644531 19.463125 13.35289063 18.15625 13.01953125 C12.90514847 11.85775585 7.86235534 11.66798633 2.5 11.6875 C1.61441406 11.67138672 0.72882813 11.65527344 -0.18359375 11.63867188 C-13.48905086 11.62890282 -24.15404314 17.59022651 -33.70703125 26.55078125 C-37.26412409 30.35026543 -39.73099099 34.33435022 -42 39 C-42.61875 40.21042969 -42.61875 40.21042969 -43.25 41.4453125 C-48.24623883 52.79093817 -47.37253257 66.61114559 -43.26953125 78.09375 C-40.25257285 85.000264 -36.70568114 90.99013364 -31 96 C-30.51144531 96.47953125 -30.02289063 96.9590625 -29.51953125 97.453125 C-19.32233469 107.04478732 -6.39607392 109.55018641 7.1328125 109.2734375 C11.92134435 108.93485444 15.55397524 107.73319609 20 106 C21.485 106.495 21.485 106.495 23 107 C9.25998256 117.82314223 -3.08574032 123.30444287 -20.6875 123.4375 C-21.63713623 123.44765137 -22.58677246 123.45780273 -23.56518555 123.46826172 C-40.16601189 123.2642886 -54.70528309 115.95799485 -66.625 104.6875 C-70.35207617 100.83307499 -73.24850335 96.5885017 -76 92 C-76.36996094 91.38640625 -76.73992187 90.7728125 -77.12109375 90.140625 C-84.9699033 75.8478512 -87.05782693 57.33618729 -82.50878906 41.62573242 C-76.70742636 24.45629112 -64.89738394 11.10542287 -48.875 2.75 C-33.9169297 -4.27667415 -15.66069499 -5.9856363 0 0 Z " transform="translate(123,40)" style="fill: #030303;"></path><path d="M0 0 C1.67578125 1.06640625 1.67578125 1.06640625 3.92578125 2.87890625 C3.92578125 3.20890625 3.92578125 3.53890625 3.92578125 3.87890625 C2.765625 4.02585937 2.765625 4.02585937 1.58203125 4.17578125 C-7.64870486 5.50098594 -16.52708158 7.8380874 -22.41796875 15.6640625 C-26.99853842 22.57486383 -29.11456233 29.5956643 -28.07421875 37.87890625 C-26.00307112 46.57276545 -22.22260832 53.30090934 -14.8203125 58.4453125 C-8.43820978 62.04100761 -2.32124735 62.74193492 4.92578125 62.87890625 C4.92578125 63.53890625 4.92578125 64.19890625 4.92578125 64.87890625 C3.19859609 65.84080622 1.46894067 66.79827133 -0.26171875 67.75390625 C-1.22464844 68.28757812 -2.18757813 68.82125 -3.1796875 69.37109375 C-12.22284822 74.08183604 -23.03981389 74.52964659 -33.00390625 72.19140625 C-35.19853713 71.25419733 -37.08274728 70.19026374 -39.07421875 68.87890625 C-39.83863281 68.44320312 -40.60304688 68.0075 -41.390625 67.55859375 C-50.71422056 61.93678819 -55.43841139 53.60021501 -59.32421875 43.69140625 C-61.71434613 31.54159205 -59.88834193 22.14973435 -53.51171875 11.75390625 C-49.4868593 5.97047019 -45.22494038 2.26039027 -39.07421875 -1.12109375 C-38.30464844 -1.55292969 -37.53507812 -1.98476562 -36.7421875 -2.4296875 C-25.04426749 -8.03615331 -11.13961902 -6.0208487 0 0 Z " transform="translate(146.07421875,66.12109375)" style="fill: #040404;"></path><path d="M0 0 C20.68689572 2.29854397 20.68689572 2.29854397 27.6328125 3.5078125 C28.79319534 3.70333206 28.79319534 3.70333206 29.97702026 3.90280151 C32.36051063 4.30548586 34.74275151 4.71504072 37.125 5.125 C38.77726474 5.40541386 40.42960833 5.6853635 42.08203125 5.96484375 C46.05561084 6.63791709 50.02809149 7.31713752 54 8 C54 8.33 54 8.66 54 9 C53.14019531 9.20753906 52.28039062 9.41507813 51.39453125 9.62890625 C32.29114935 14.60786838 16.00835811 25.23262833 5.625 42.3125 C3.98161477 45.16317661 2.4470589 48.04502458 1 51 C0.67 51 0.34 51 0 51 C0 34.17 0 17.34 0 0 Z " transform="translate(34,19)" style="fill: #070707;"></path><path d="M0 0 C2.23859036 2.98478715 4.10529791 5.81690048 6 9 C17.45507446 26.93592034 31.99283424 35.82345367 52 42 C52 42.33 52 42.66 52 43 C45.07712634 44.1426654 38.15364928 45.28161795 31.22973633 46.41796875 C28.87347518 46.80513028 26.51735445 47.19314734 24.16137695 47.58203125 C20.77852177 48.14026288 17.39517658 48.69543429 14.01171875 49.25 C12.95538742 49.42499023 11.89905609 49.59998047 10.81071472 49.78027344 C9.82992447 49.94043945 8.84913422 50.10060547 7.83862305 50.265625 C6.54289619 50.47880371 6.54289619 50.47880371 5.22099304 50.69628906 C3 51 3 51 0 51 C0 34.17 0 17.34 0 0 Z " transform="translate(34,130)" style="fill: #080808;"></path><path d="M0 0 C13.365 1.485 13.365 1.485 27 3 C27 10.26 27 17.52 27 25 C23.75696838 21.75696838 20.81909706 18.65213133 17.875 15.1875 C13.77908082 10.58217238 9.35531893 7.07369288 4.28515625 3.59375 C2 2 2 2 0 0 Z " transform="translate(138,35)" style="fill: #0F0F0F;"></path><path d="M0 0 C0.33 0 0.66 0 1 0 C1 6.93 1 13.86 1 21 C-7.33803063 22.50687301 -15.54391649 23.48172391 -24 24 C-23.29617187 23.44699219 -22.59234375 22.89398438 -21.8671875 22.32421875 C-14.17667401 16.09008316 -7.01048225 9.64473324 -1.20703125 1.58203125 C-0.80871094 1.05996094 -0.41039062 0.53789062 0 0 Z " transform="translate(164,140)" style="fill: #121212;"></path><path d="M0 0 C4.29 0.66 8.58 1.32 13 2 C13 2.33 13 2.66 13 3 C9.04 3.99 5.08 4.98 1 6 C0.67 4.02 0.34 2.04 0 0 Z " transform="translate(75,25)" style="fill: #1B1B1B;"></path><path d="M0 0 C0.66 0 1.32 0 2 0 C0.43873668 3.83219177 -2.02866925 6.17361222 -5 9 C-5.598125 9.598125 -6.19625 10.19625 -6.8125 10.8125 C-7.204375 11.204375 -7.59625 11.59625 -8 12 C-8.66 11.67 -9.32 11.34 -10 11 C-8.38150935 9.16053461 -6.75581169 7.32848583 -5.125 5.5 C-4.66480469 4.97535156 -4.20460938 4.45070313 -3.73046875 3.91015625 C-2.52827924 2.56858245 -1.26754054 1.28000815 0 0 Z " transform="translate(60,52)" style="fill: #232323;"></path><path d="M0 0 C-5.75 5 -5.75 5 -8 5 C-8.33 3.68 -8.66 2.36 -9 1 C-3.375 -1.125 -3.375 -1.125 0 0 Z " transform="translate(146,147)" style="fill: #2B2B2B;"></path><path d="M0 0 C3.3 0.33 6.6 0.66 10 1 C9.67 1.66 9.34 2.32 9 3 C8.34 3 7.68 3 7 3 C6.67 3.66 6.34 4.32 6 5 C3.98079663 3.69593116 1.98075027 2.36176581 0 1 C0 0.67 0 0.34 0 0 Z " transform="translate(138,35)" style="fill: #262626;"></path><path d="M0 0 C1.65 1.65 3.3 3.3 5 5 C0.545 4.01 0.545 4.01 -4 3 C-2.68 2.01 -1.36 1.02 0 0 Z " transform="translate(140,49)" style="fill: #313131;"></path><path d="M0 0 C0 3 0 3 -2.5 5.6875 C-3.325 6.450625 -4.15 7.21375 -5 8 C-5.66 7.67 -6.32 7.34 -7 7 C-4.66666667 4.66666667 -2.33333333 2.33333333 0 0 Z " transform="translate(101,69)" style="fill: #222222;"></path></svg>